<?xml version="1.0" standalone="no"?>
<!DOCTYPE svg PUBLIC "-//W3C//DTD SVG 20010904//EN"
 "http://www.w3.org/TR/2001/REC-SVG-20010904/DTD/svg10.dtd">
<svg version="1.0" xmlns="http://www.w3.org/2000/svg"
 width="1210.000000pt" height="852.000000pt" viewBox="0 0 1210.000000 852.000000"
 preserveAspectRatio="xMidYMid meet">

<g transform="translate(0.000000,852.000000) scale(0.100000,-0.100000)"
fill="#000000" stroke="none">
<path d="M5453 7729 c-27 -8 -33 -15 -33 -38 0 -15 4 -41 9 -57 5 -16 14 -60
21 -99 6 -38 25 -137 41 -220 16 -82 33 -175 39 -205 5 -30 19 -102 30 -160
11 -58 25 -132 31 -165 6 -33 14 -78 19 -100 5 -22 13 -67 19 -100 6 -33 18
-96 27 -140 9 -44 19 -93 21 -110 2 -16 8 -48 13 -70 5 -22 18 -92 30 -155 12
-63 30 -158 41 -210 10 -52 19 -105 19 -117 0 -26 25 -42 41 -26 9 9 6 42 -21
213 -5 30 -13 87 -19 125 -6 39 -20 126 -30 195 -11 69 -27 172 -36 230 -8 58
-19 132 -25 165 -27 168 -57 358 -80 510 -5 36 -14 93 -20 128 -5 34 -19 123
-30 197 -34 220 -33 215 -55 217 -11 1 -35 -3 -52 -8z"/>
<path d="M6681 7718 c-5 -13 -11 -43 -15 -68 -4 -25 -11 -72 -16 -105 -6 -33
-17 -102 -25 -152 -8 -51 -22 -135 -30 -185 -21 -131 -32 -202 -45 -283 -6
-38 -15 -92 -20 -120 -5 -27 -14 -81 -20 -120 -6 -38 -15 -95 -20 -125 -5 -30
-14 -89 -20 -130 -7 -41 -15 -95 -20 -120 -5 -25 -13 -79 -20 -120 -6 -41 -15
-100 -20 -130 -5 -30 -14 -89 -20 -130 -7 -41 -16 -94 -22 -117 -12 -47 -6
-63 23 -63 23 0 21 -7 49 145 24 132 45 242 90 475 17 85 35 180 40 210 10 54
61 327 80 425 6 28 23 118 39 200 16 83 39 202 50 265 12 63 26 134 31 157 17
71 13 90 -17 97 -16 4 -36 9 -45 12 -12 4 -21 -2 -27 -18z"/>
<path d="M4268 7302 c-16 -10 -28 -23 -28 -31 0 -7 38 -77 84 -155 188 -318
354 -599 544 -921 110 -187 219 -371 242 -410 23 -38 63 -106 89 -149 48 -83
67 -99 77 -71 7 16 -8 49 -74 165 -14 25 -40 72 -57 105 -18 33 -57 105 -87
160 -30 55 -72 132 -93 170 -62 116 -224 412 -295 540 -36 66 -126 231 -200
367 -145 266 -144 265 -202 230z"/>
<path d="M7849 7278 c-12 -24 -145 -266 -296 -538 -312 -561 -466 -840 -510
-920 -17 -30 -54 -97 -82 -148 -28 -50 -51 -96 -51 -102 0 -5 9 -14 20 -20 20
-11 6 -33 284 440 84 141 318 541 649 1105 38 66 76 130 83 142 8 12 14 27 14
32 0 10 -65 51 -80 51 -5 0 -19 -19 -31 -42z"/>
<path d="M3297 6492 l-28 -37 28 -25 c16 -14 141 -117 278 -230 137 -113 283
-234 326 -270 42 -36 145 -121 229 -190 83 -69 225 -185 313 -259 394 -326
367 -306 385 -287 16 16 15 19 -14 44 -16 15 -99 88 -184 162 -84 74 -221 195
-304 268 -221 196 -263 233 -561 495 -148 131 -302 267 -342 303 -39 35 -78
64 -85 64 -7 -1 -26 -17 -41 -38z"/>
<path d="M8779 6462 c-42 -37 -148 -130 -235 -207 -88 -78 -253 -224 -369
-325 -115 -101 -307 -270 -425 -375 -119 -104 -255 -224 -303 -265 -48 -41
-87 -81 -87 -88 0 -34 35 -18 122 55 52 43 149 123 217 178 233 189 366 297
441 359 41 34 149 122 240 196 391 318 550 450 550 458 0 6 -69 83 -73 82 -1
-1 -36 -31 -78 -68z"/>
<path d="M2659 5413 c-11 -25 -16 -50 -11 -55 4 -4 33 -17 63 -28 30 -10 92
-33 139 -50 47 -18 96 -35 110 -40 14 -4 77 -27 140 -50 63 -23 151 -54 195
-70 94 -34 255 -91 415 -150 63 -23 140 -50 171 -60 31 -10 85 -30 120 -43
215 -85 523 -187 532 -178 16 16 0 39 -35 49 -18 5 -186 71 -373 147 -187 76
-368 148 -403 161 -34 13 -88 34 -120 48 -71 31 -204 84 -257 103 -22 8 -76
30 -120 48 -44 18 -145 59 -225 90 -159 62 -256 102 -282 116 -30 15 -38 10
-59 -38z"/>
<path d="M9450 5424 c-30 -13 -172 -69 -315 -125 -143 -55 -293 -114 -332
-130 -144 -58 -220 -88 -343 -135 -69 -26 -226 -88 -350 -137 -124 -49 -254
-100 -290 -114 -36 -13 -89 -34 -117 -45 -51 -20 -68 -43 -39 -54 13 -5 75 15
416 136 80 29 156 56 170 60 14 5 77 27 140 50 63 23 126 46 140 50 14 4 90
32 170 60 80 29 208 74 285 101 77 28 184 65 238 84 53 19 143 51 199 70 145
51 140 47 122 93 -25 60 -32 62 -94 36z"/>
<path d="M5925 4730 c-3 -6 -6 -146 -6 -312 0 -178 -4 -309 -10 -320 -9 -17
-31 -18 -369 -18 l-360 0 0 -150 0 -150 368 -2 367 -3 2 -665 c2 -366 3 -668
3 -672 0 -5 68 -8 150 -8 l150 0 0 675 0 675 370 0 370 0 0 150 c0 113 -3 150
-12 150 -7 0 -173 1 -368 3 l-355 2 -5 325 -5 325 -142 3 c-90 2 -144 -1 -148
-8z"/>
<path d="M2425 4207 c-4 -8 -5 -32 -3 -53 l3 -39 1000 0 1000 0 3 21 c3 20 -2
21 -154 28 -168 7 -608 20 -1224 36 -212 5 -438 12 -502 16 -101 6 -118 5
-123 -9z"/>
<path d="M9405 4199 c-176 -4 -486 -12 -690 -18 -203 -6 -502 -14 -662 -18
l-293 -6 0 -24 0 -23 1003 2 1002 3 0 45 c0 38 -3 45 -20 46 -11 0 -164 -3
-340 -7z"/>
<path d="M576 1491 c-3 -4 41 -62 97 -127 195 -227 267 -313 267 -319 0 -7
-195 -237 -306 -362 -35 -39 -64 -74 -64 -77 0 -3 19 -6 43 -6 42 0 42 1 167
146 69 81 141 166 160 190 41 50 55 53 81 20 11 -13 51 -61 89 -105 l70 -81 0
-86 0 -85 33 3 32 3 3 84 3 84 91 108 c50 60 93 109 94 109 3 0 177 -202 287
-333 46 -54 51 -57 93 -57 l45 0 -63 74 c-240 283 -308 365 -308 374 0 5 17
30 39 53 21 24 58 67 82 96 24 29 90 106 146 171 56 66 99 122 96 126 -8 8
-47 8 -67 0 -9 -4 -129 -139 -268 -300 -138 -162 -254 -294 -259 -294 -5 0
-10 131 -11 291 -3 256 -5 293 -19 302 -9 6 -24 7 -33 4 -14 -6 -16 -38 -16
-308 0 -165 -4 -299 -8 -297 -8 3 -74 79 -416 481 -99 115 -112 127 -142 127
-18 0 -35 -4 -38 -9z"/>
<path d="M2087 1494 c-4 -4 -7 -207 -7 -451 l0 -443 30 0 c16 0 33 6 37 14 7
12 315 375 537 633 49 56 92 100 97 98 4 -3 8 -171 8 -373 l0 -367 33 0 33 0
3 434 c2 440 1 461 -34 461 -7 0 -102 -104 -211 -232 -374 -438 -449 -523
-457 -518 -4 3 -8 172 -9 375 l-2 370 -25 3 c-14 2 -29 0 -33 -4z"/>
<path d="M3275 1488 c-99 -14 -192 -105 -198 -193 -2 -38 0 -40 26 -40 25 0
31 7 50 55 17 42 32 61 67 84 l44 30 191 1 c210 0 227 -4 279 -65 58 -69 53
-162 -11 -226 -40 -41 -86 -54 -185 -54 l-78 0 0 -35 0 -35 73 0 c114 0 146
-9 187 -50 51 -51 66 -110 45 -170 -19 -55 -57 -96 -102 -111 -38 -12 -326
-16 -389 -5 -52 9 -108 62 -127 119 -12 37 -17 42 -43 42 -26 0 -29 -3 -27
-30 4 -55 13 -76 55 -121 75 -81 87 -84 331 -84 l215 0 48 32 c27 18 64 55 82
82 28 43 32 56 32 116 0 80 -17 127 -65 174 -19 20 -35 39 -35 43 0 4 16 24
36 43 19 19 42 50 50 68 20 49 18 148 -5 198 -23 50 -92 111 -142 124 -44 12
-337 18 -404 8z"/>
<path d="M4067 1494 c-4 -4 -7 -207 -7 -451 l0 -444 33 3 32 3 3 203 2 202
318 -2 317 -3 1 -200 2 -200 36 -3 36 -3 0 438 c0 328 -3 442 -12 451 -16 16
-47 15 -53 0 -3 -7 -6 -101 -7 -208 l-3 -195 -317 -3 -318 -2 -2 207 -3 208
-25 3 c-14 2 -29 0 -33 -4z"/>
<path d="M5057 1494 c-4 -4 -7 -207 -7 -451 l0 -443 28 0 c23 0 49 27 172 172
80 94 192 226 250 293 58 67 136 159 174 203 38 45 73 82 78 82 4 0 8 -169 8
-376 l0 -375 33 3 32 3 3 436 c2 371 0 438 -12 448 -22 19 -45 2 -127 -96
-194 -232 -553 -648 -560 -651 -5 -2 -10 167 -11 375 l-3 378 -25 3 c-14 2
-29 0 -33 -4z"/>
<path d="M7475 1488 c-3 -7 -4 -209 -3 -448 l3 -435 33 -3 32 -3 0 345 c0 190
3 346 8 346 4 0 84 -155 177 -343 155 -312 173 -342 195 -342 23 0 40 30 195
342 94 188 173 342 178 342 4 1 7 -154 7 -344 l0 -345 35 0 35 0 0 444 c0 439
0 445 -20 451 -12 4 -26 2 -33 -4 -7 -6 -95 -179 -197 -385 -122 -247 -190
-375 -200 -375 -10 0 -83 137 -205 382 -159 319 -194 383 -213 385 -12 2 -24
-3 -27 -10z"/>
<path d="M8587 1493 c-4 -3 -7 -206 -7 -450 l0 -443 298 0 c266 0 301 2 337
19 56 25 110 89 131 155 15 48 16 62 5 111 -17 74 -62 133 -130 168 l-55 27
-258 0 -258 0 0 204 c0 177 -2 205 -16 210 -20 8 -39 8 -47 -1z m620 -511 c53
-38 74 -76 76 -136 2 -93 -48 -154 -143 -175 -33 -7 -389 -8 -482 -2 -10 1
-10 325 -1 335 4 4 123 6 263 4 247 -3 256 -4 287 -26z"/>
<path d="M9507 1494 c-4 -4 -7 -207 -7 -451 l0 -443 35 0 35 0 -2 448 -3 447
-25 3 c-14 2 -29 0 -33 -4z"/>
<path d="M11131 1458 c-10 -24 -35 -81 -54 -128 -46 -113 -157 -372 -201 -472
-47 -105 -98 -225 -103 -241 -5 -16 -1 -18 32 -15 l37 3 79 185 c44 102 83
194 89 205 10 23 120 283 139 333 8 17 17 32 20 32 4 0 27 -46 51 -102 308
-731 271 -652 314 -656 20 -2 36 -1 36 2 0 7 -13 38 -216 514 -74 172 -134
316 -134 321 0 15 -41 61 -55 61 -8 0 -23 -19 -34 -42z"/>
<path d="M6823 1475 c-149 -42 -256 -146 -308 -299 -12 -36 -16 -75 -13 -150
3 -88 7 -109 34 -166 127 -265 444 -343 677 -167 43 33 46 49 13 67 -22 11
-28 10 -55 -12 -67 -57 -118 -73 -231 -73 -96 0 -110 3 -163 30 -78 39 -159
126 -187 202 -55 146 -28 281 77 394 86 92 162 123 292 117 90 -3 161 -29 223
-79 27 -22 28 -22 48 -4 11 10 20 23 20 29 0 15 -82 70 -145 97 -65 29 -207
36 -282 14z"/>
<path d="M10125 1481 c-328 -87 -448 -497 -216 -739 147 -153 356 -187 541
-86 61 33 95 68 86 89 -11 29 -34 27 -86 -9 -75 -51 -146 -70 -245 -64 -95 6
-166 37 -233 102 -78 74 -112 157 -112 274 0 71 4 92 30 150 62 136 176 213
327 220 97 5 158 -12 234 -65 49 -33 52 -34 70 -17 10 9 19 23 19 29 0 17 -95
81 -150 101 -50 18 -218 28 -265 15z"/>
</g>
</svg>
