<?xml version="1.0" encoding="UTF-8"?>
<svg id="_Слой_1" data-name="Слой 1" xmlns="http://www.w3.org/2000/svg" viewBox="0 0 1100 713.87">
  <defs>
    <style>
      .cls-1 {
        fill: #fff;
      }
    </style>
  </defs>
  <path class="cls-1" d="m488.3.82c-2.7.8-3.3,1.5-3.3,3.8,0,1.5.4,4.1.9,5.7s1.4,6,2.1,9.9c.6,3.8,2.5,13.7,4.1,22,1.6,8.2,3.3,17.5,3.9,20.5.5,3,1.9,10.2,3,16s2.5,13.2,3.1,16.5,1.4,7.8,1.9,10,1.3,6.7,1.9,10,1.8,9.6,2.7,14,1.9,9.3,2.1,11c.2,1.6.8,4.8,1.3,7s1.8,9.2,3,15.5,3,15.8,4.1,21c1,5.2,1.9,10.5,1.9,11.7,0,2.6,2.5,4.2,4.1,2.6.9-.9.6-4.2-2.1-21.3-.5-3-1.3-8.7-1.9-12.5-.6-3.9-2-12.6-3-19.5-1.1-6.9-2.7-17.2-3.6-23-.8-5.8-1.9-13.2-2.5-16.5-2.7-16.8-5.7-35.8-8-51-.5-3.6-1.4-9.3-2-12.8-.5-3.4-1.9-12.3-3-19.7C495.6-.28,495.7.22,493.5.02c-1.1-.1-3.5.3-5.2.8Z"/>
  <path class="cls-1" d="m611.1,1.92c-.5,1.3-1.1,4.3-1.5,6.8s-1.1,7.2-1.6,10.5c-.6,3.3-1.7,10.2-2.5,15.2-.8,5.1-2.2,13.5-3,18.5-2.1,13.1-3.2,20.2-4.5,28.3-.6,3.8-1.5,9.2-2,12-.5,2.7-1.4,8.1-2,12-.6,3.8-1.5,9.5-2,12.5s-1.4,8.9-2,13c-.7,4.1-1.5,9.5-2,12s-1.3,7.9-2,12c-.6,4.1-1.5,10-2,13s-1.4,8.9-2,13c-.7,4.1-1.6,9.4-2.2,11.7-1.2,4.7-.6,6.3,2.3,6.3,2.3,0,2.1.7,4.9-14.5,2.4-13.2,4.5-24.2,9-47.5,1.7-8.5,3.5-18,4-21,1-5.4,6.1-32.7,8-42.5.6-2.8,2.3-11.8,3.9-20,1.6-8.3,3.9-20.2,5-26.5,1.2-6.3,2.6-13.4,3.1-15.7,1.7-7.1,1.3-9-1.7-9.7-1.6-.4-3.6-.9-4.5-1.2-1.2-.4-2.1.2-2.7,1.8Z"/>
  <path class="cls-1" d="m369.8,43.52c-1.6,1-2.8,2.3-2.8,3.1,0,.7,3.8,7.7,8.4,15.5,18.8,31.8,35.4,59.9,54.4,92.1,11,18.7,21.9,37.1,24.2,41,2.3,3.8,6.3,10.6,8.9,14.9,4.8,8.3,6.7,9.9,7.7,7.1.7-1.6-.8-4.9-7.4-16.5-1.4-2.5-4-7.2-5.7-10.5-1.8-3.3-5.7-10.5-8.7-16s-7.2-13.2-9.3-17c-6.2-11.6-22.4-41.2-29.5-54-3.6-6.6-12.6-23.1-20-36.7-14.5-26.6-14.4-26.5-20.2-23Z"/>
  <path class="cls-1" d="m727.9,45.92c-1.2,2.4-14.5,26.6-29.6,53.8-31.2,56.1-46.6,84-51,92-1.7,3-5.4,9.7-8.2,14.8-2.8,5-5.1,9.6-5.1,10.2,0,.5.9,1.4,2,2,2,1.1.6,3.3,28.4-44,8.4-14.1,31.8-54.1,64.9-110.5,3.8-6.6,7.6-13,8.3-14.2.8-1.2,1.4-2.7,1.4-3.2,0-1-6.5-5.1-8-5.1-.5,0-1.9,1.9-3.1,4.2Z"/>
  <path class="cls-1" d="m272.7,124.52l-2.8,3.7,2.8,2.5c1.6,1.4,14.1,11.7,27.8,23s28.3,23.4,32.6,27c4.2,3.6,14.5,12.1,22.9,19,8.3,6.9,22.5,18.5,31.3,25.9,39.4,32.6,36.7,30.6,38.5,28.7,1.6-1.6,1.5-1.9-1.4-4.4-1.6-1.5-9.9-8.8-18.4-16.2-8.4-7.4-22.1-19.5-30.4-26.8-22.1-19.6-26.3-23.3-56.1-49.5-14.8-13.1-30.2-26.7-34.2-30.3-3.9-3.5-7.8-6.4-8.5-6.4-.7.1-2.6,1.7-4.1,3.8Z"/>
  <path class="cls-1" d="m820.9,127.52c-4.2,3.7-14.8,13-23.5,20.7-8.8,7.8-25.3,22.4-36.9,32.5-11.5,10.1-30.7,27-42.5,37.5-11.9,10.4-25.5,22.4-30.3,26.5s-8.7,8.1-8.7,8.8c0,3.4,3.5,1.8,12.2-5.5,5.2-4.3,14.9-12.3,21.7-17.8,23.3-18.9,36.6-29.7,44.1-35.9,4.1-3.4,14.9-12.2,24-19.6,39.1-31.8,55-45,55-45.8,0-.6-6.9-8.3-7.3-8.2-.1.1-3.6,3.1-7.8,6.8Z"/>
  <path class="cls-1" d="m208.9,232.42c-1.1,2.5-1.6,5-1.1,5.5.4.4,3.3,1.7,6.3,2.8,3,1,9.2,3.3,13.9,5,4.7,1.8,9.6,3.5,11,4,1.4.4,7.7,2.7,14,5s15.1,5.4,19.5,7c9.4,3.4,25.5,9.1,41.5,15,6.3,2.3,14,5,17.1,6s8.5,3,12,4.3c21.5,8.5,52.3,18.7,53.2,17.8,1.6-1.6,0-3.9-3.5-4.9-1.8-.5-18.6-7.1-37.3-14.7s-36.8-14.8-40.3-16.1c-3.4-1.3-8.8-3.4-12-4.8-7.1-3.1-20.4-8.4-25.7-10.3-2.2-.8-7.6-3-12-4.8s-14.5-5.9-22.5-9c-15.9-6.2-25.6-10.2-28.2-11.6-3-1.5-3.8-1-5.9,3.8Z"/>
  <path class="cls-1" d="m888,231.32c-3,1.3-17.2,6.9-31.5,12.5-14.3,5.5-29.3,11.4-33.2,13-14.4,5.8-22,8.8-34.3,13.5-6.9,2.6-22.6,8.8-35,13.7s-25.4,10-29,11.4c-3.6,1.3-8.9,3.4-11.7,4.5-5.1,2-6.8,4.3-3.9,5.4,1.3.5,7.5-1.5,41.6-13.6,8-2.9,15.6-5.6,17-6,1.4-.5,7.7-2.7,14-5s12.6-4.6,14-5,9-3.2,17-6c8-2.9,20.8-7.4,28.5-10.1,7.7-2.8,18.4-6.5,23.8-8.4,5.3-1.9,14.3-5.1,19.9-7,14.5-5.1,14-4.7,12.2-9.3-2.5-6-3.2-6.2-9.4-3.6Z"/>
  <path class="cls-1" d="m535.5,300.72c-.3.6-.6,14.6-.6,31.2,0,17.8-.4,30.9-1,32-.9,1.7-3.1,1.8-36.9,1.8h-36v30l36.8.2,36.7.3.2,66.5c.2,36.6.3,66.8.3,67.2,0,.5,6.8.8,15,.8h15v-135h74v-15c0-11.3-.3-15-1.2-15-.7,0-17.3-.1-36.8-.3l-35.5-.2-.5-32.5-.5-32.5-14.2-.3c-9-.2-14.4.1-14.8.8Z"/>
  <path class="cls-1" d="m185.5,353.02c-.4.8-.5,3.2-.3,5.3l.3,3.9h200l.3-2.1c.3-2-.2-2.1-15.4-2.8-16.8-.7-60.8-2-122.4-3.6-21.2-.5-43.8-1.2-50.2-1.6-10.1-.6-11.8-.5-12.3.9Z"/>
  <path class="cls-1" d="m883.5,353.82c-17.6.4-48.6,1.2-69,1.8-20.3.6-50.2,1.4-66.2,1.8l-29.3.6v4.7l100.3-.2,100.2-.3v-4.5c0-3.8-.3-4.5-2-4.6-1.1,0-16.4.3-34,.7Z"/>
  <path class="cls-1" d="m.6,624.62c-.3.4,4.1,6.2,9.7,12.7,19.5,22.7,26.7,31.3,26.7,31.9,0,.7-19.5,23.7-30.6,36.2-3.5,3.9-6.4,7.4-6.4,7.7s1.9.6,4.3.6c4.2,0,4.2-.1,16.7-14.6,6.9-8.1,14.1-16.6,16-19,4.1-5,5.5-5.3,8.1-2,1.1,1.3,5.1,6.1,8.9,10.5l7,8.1v17.1l3.3-.3,3.2-.3.3-8.4.3-8.4,9.1-10.8c5-6,9.3-10.9,9.4-10.9.3,0,17.7,20.2,28.7,33.3,4.6,5.4,5.1,5.7,9.3,5.7h4.5l-6.3-7.4c-24-28.3-30.8-36.5-30.8-37.4,0-.5,1.7-3,3.9-5.3,2.1-2.4,5.8-6.7,8.2-9.6s9-10.6,14.6-17.1c5.6-6.6,9.9-12.2,9.6-12.6-.8-.8-4.7-.8-6.7,0-.9.4-12.9,13.9-26.8,30-13.8,16.2-25.4,29.4-25.9,29.4s-1-13.1-1.1-29.1c-.3-25.6-.5-29.3-1.9-30.2-.9-.6-2.4-.7-3.3-.4-1.4.6-1.6,3.8-1.6,30.8,0,16.5-.4,29.9-.8,29.7-.8-.3-7.4-7.9-41.6-48.1-9.9-11.5-11.2-12.7-14.2-12.7-1.8,0-3.5.4-3.8.9Z"/>
  <path class="cls-1" d="m151.7,624.32c-.4.4-.7,20.7-.7,45.1v44.3h3c1.6,0,3.3-.6,3.7-1.4.7-1.2,31.5-37.5,53.7-63.3,4.9-5.6,9.2-10,9.7-9.8.4.3.8,17.1.8,37.3v36.7h6.6l.3-43.4c.2-44,.1-46.1-3.4-46.1-.7,0-10.2,10.4-21.1,23.2-37.4,43.8-44.9,52.3-45.7,51.8-.4-.3-.8-17.2-.9-37.5l-.2-37-2.5-.3c-1.4-.2-2.9,0-3.3.4Z"/>
  <path class="cls-1" d="m270.5,624.92c-9.9,1.4-19.2,10.5-19.8,19.3-.2,3.8,0,4,2.6,4s3.1-.7,5-5.5c1.7-4.2,3.2-6.1,6.7-8.4l4.4-3,19.1-.1c21,0,22.7.4,27.9,6.5,5.8,6.9,5.3,16.2-1.1,22.6-4,4.1-8.6,5.4-18.5,5.4h-7.8v7h7.3c11.4,0,14.6.9,18.7,5,5.1,5.1,6.6,11,4.5,17-1.9,5.5-5.7,9.6-10.2,11.1-3.8,1.2-32.6,1.6-38.9.5-5.2-.9-10.8-6.2-12.7-11.9-1.2-3.7-1.7-4.2-4.3-4.2s-2.9.3-2.7,3c.4,5.5,1.3,7.6,5.5,12.1,7.5,8.1,8.7,8.4,33.1,8.4h21.5l4.8-3.2c2.7-1.8,6.4-5.5,8.2-8.2,2.8-4.3,3.2-5.6,3.2-11.6,0-8-1.7-12.7-6.5-17.4-1.9-2-3.5-3.9-3.5-4.3s1.6-2.4,3.6-4.3c1.9-1.9,4.2-5,5-6.8,2-4.9,1.8-14.8-.5-19.8s-9.2-11.1-14.2-12.4c-4.4-1.2-33.7-1.8-40.4-.8Z"/>
  <path class="cls-1" d="m349.7,624.32c-.4.4-.7,20.7-.7,45.1v44.4l3.3-.3,3.2-.3.3-20.3.2-20.2,31.8.2,31.7.3.1,20,.2,20,3.6.3,3.6.3v-43.8c0-32.8-.3-44.2-1.2-45.1-1.6-1.6-4.7-1.5-5.3,0-.3.7-.6,10.1-.7,20.8l-.3,19.5-31.7.3-31.8.2-.2-20.7-.3-20.8-2.5-.3c-1.4-.2-2.9,0-3.3.4Z"/>
  <path class="cls-1" d="m448.7,624.32c-.4.4-.7,20.7-.7,45.1v44.3h2.8c2.3,0,4.9-2.7,17.2-17.2,8-9.4,19.2-22.6,25-29.3s13.6-15.9,17.4-20.3c3.8-4.5,7.3-8.2,7.8-8.2.4,0,.8,16.9.8,37.6v37.5l3.3-.3,3.2-.3.3-43.6c.2-37.1,0-43.8-1.2-44.8-2.2-1.9-4.5-.2-12.7,9.6-19.4,23.2-55.3,64.8-56,65.1-.5.2-1-16.7-1.1-37.5l-.3-37.8-2.5-.3c-1.4-.2-2.9,0-3.3.4Z"/>
  <path class="cls-1" d="m690.5,624.92c-.3.7-.4,20.9-.3,44.8l.3,43.5,3.3.3,3.2.3v-34.5c0-19,.3-34.6.8-34.6.4,0,8.4,15.5,17.7,34.3,15.5,31.2,17.3,34.2,19.5,34.2s4-3,19.5-34.2c9.4-18.8,17.3-34.2,17.8-34.2.4-.1.7,15.4.7,34.4v34.5h7v-44.4c0-43.9,0-44.5-2-45.1-1.2-.4-2.6-.2-3.3.4s-9.5,17.9-19.7,38.5c-12.2,24.7-19,37.5-20,37.5s-8.3-13.7-20.5-38.2c-15.9-31.9-19.4-38.3-21.3-38.5-1.2-.2-2.4.3-2.7,1Z"/>
  <path class="cls-1" d="m801.7,624.42c-.4.3-.7,20.6-.7,45v44.3h29.8c26.6,0,30.1-.2,33.7-1.9,5.6-2.5,11-8.9,13.1-15.5,1.5-4.8,1.6-6.2.5-11.1-1.7-7.4-6.2-13.3-13-16.8l-5.5-2.7h-51.6v-20.4c0-17.7-.2-20.5-1.6-21-2-.8-3.9-.8-4.7.1Zm62,51.1c5.3,3.8,7.4,7.6,7.6,13.6.2,9.3-4.8,15.4-14.3,17.5-3.3.7-38.9.8-48.2.2-1-.1-1-32.5-.1-33.5.4-.4,12.3-.6,26.3-.4,24.7.3,25.6.4,28.7,2.6Z"/>
  <path class="cls-1" d="m893.7,624.32c-.4.4-.7,20.7-.7,45.1v44.3h7l-.2-44.8-.3-44.7-2.5-.3c-1.4-.2-2.9,0-3.3.4Z"/>
  <path class="cls-1" d="m1056.1,627.92c-1,2.4-3.5,8.1-5.4,12.8-4.6,11.3-15.7,37.2-20.1,47.2-4.7,10.5-9.8,22.5-10.3,24.1s-.1,1.8,3.2,1.5l3.7-.3,7.9-18.5c4.4-10.2,8.3-19.4,8.9-20.5,1-2.3,12-28.3,13.9-33.3.8-1.7,1.7-3.2,2-3.2.4,0,2.7,4.6,5.1,10.2,30.8,73.1,27.1,65.2,31.4,65.6,2,.2,3.6.1,3.6-.2,0-.7-1.3-3.8-21.6-51.4-7.4-17.2-13.4-31.6-13.4-32.1,0-1.5-4.1-6.1-5.5-6.1-.8,0-2.3,1.9-3.4,4.2Z"/>
  <path class="cls-1" d="m625.3,626.22c-14.9,4.2-25.6,14.6-30.8,29.9-1.2,3.6-1.6,7.5-1.3,15,.3,8.8.7,10.9,3.4,16.6,12.7,26.5,44.4,34.3,67.7,16.7,4.3-3.3,4.6-4.9,1.3-6.7-2.2-1.1-2.8-1-5.5,1.2-6.7,5.7-11.8,7.3-23.1,7.3-9.6,0-11-.3-16.3-3-7.8-3.9-15.9-12.6-18.7-20.2-5.5-14.6-2.8-28.1,7.7-39.4,8.6-9.2,16.2-12.3,29.2-11.7,9,.3,16.1,2.9,22.3,7.9,2.7,2.2,2.8,2.2,4.8.4,1.1-1,2-2.3,2-2.9,0-1.5-8.2-7-14.5-9.7-6.5-2.9-20.7-3.6-28.2-1.4Z"/>
  <path class="cls-1" d="m955.5,625.62c-32.8,8.7-44.8,49.7-21.6,73.9,14.7,15.3,35.6,18.7,54.1,8.6,6.1-3.3,9.5-6.8,8.6-8.9-1.1-2.9-3.4-2.7-8.6.9-7.5,5.1-14.6,7-24.5,6.4-9.5-.6-16.6-3.7-23.3-10.2-7.8-7.4-11.2-15.7-11.2-27.4,0-7.1.4-9.2,3-15,6.2-13.6,17.6-21.3,32.7-22,9.7-.5,15.8,1.2,23.4,6.5,4.9,3.3,5.2,3.4,7,1.7,1-.9,1.9-2.3,1.9-2.9,0-1.7-9.5-8.1-15-10.1-5-1.8-21.8-2.8-26.5-1.5Z"/>
</svg>